<svg xmlns="http://www.w3.org/2000/svg" viewBox="0 0 100 100" width="100%" height="100%">
  <defs>
    <linearGradient id="sdBg" x1="0%" y1="0%" x2="100%" y2="100%">
      <stop offset="0%" stop-color="#0284C7"/>
      <stop offset="100%" stop-color="#0369A1"/>
    </linearGradient>
  </defs>
  <circle cx="50" cy="50" r="48" fill="url(#sdBg)"/>
  <path d="M50 18c-18.8 0-34 13.9-34 31 0 7.8 3.5 15 9.5 20.3 3.5 3.1 5.5 7.6 5.5 12.3 0 1.9 1.6 3.4 3.5 3.4h5c4.4 0 8-3.6 8-8 0-2.2 1.8-4 4-4h6.5c16.3 0 29.5-13.2 29.5-29.5C87.5 30.6 70.7 18 50 18z" fill="#FFFFFF"/>
  <circle cx="34" cy="34" r="5" fill="#EF4444"/>
  <circle cx="50" cy="27" r="5" fill="#F59E0B"/>
  <circle cx="66" cy="33" r="5" fill="#10B981"/>
  <circle cx="73" cy="48" r="5" fill="#3B82F6"/>
  <ellipse cx="64" cy="62" rx="5.5" ry="7" fill="url(#sdBg)"/>
</svg>
